<svg width="20" height="16" viewBox="0 0 20 16" fill="none" xmlns="http://www.w3.org/2000/svg">
<g clip-path="url(#clip0_256_158)">
<path d="M5.00007 0C5.53051 0 6.03921 0.210714 6.41429 0.585786C6.78936 0.960859 7.00007 1.46957 7.00007 2C7.00007 2.53043 6.78936 3.03914 6.41429 3.41421C6.03921 3.78929 5.53051 4 5.00007 4C4.46964 4 3.96093 3.78929 3.58586 3.41421C3.21079 3.03914 3.00007 2.53043 3.00007 2C3.00007 1.46957 3.21079 0.960859 3.58586 0.585786C3.96093 0.210714 4.46964 0 5.00007 0ZM2.75007 15V12.5H2.19382C1.8532 12.5 1.61257 12.1656 1.71882 11.8406L2.6907 8.92188L1.79695 10.1031C1.46257 10.5437 0.834448 10.6281 0.396948 10.2969C-0.0405519 9.96562 -0.128052 9.3375 0.203198 8.89688L2.04382 6.46875C2.74382 5.54375 3.8407 5 5.00007 5C6.15945 5 7.25632 5.54375 7.95632 6.46875L9.79695 8.89688C10.1313 9.3375 10.0438 9.96562 9.6032 10.2969C9.16257 10.6281 8.53445 10.5437 8.2032 10.1031L7.30945 8.92188L8.28132 11.8406C8.3907 12.1656 8.14695 12.5 7.80632 12.5H7.25007V15C7.25007 15.5531 6.8032 16 6.25007 16C5.69695 16 5.25007 15.5531 5.25007 15V12.5H4.75007V15C4.75007 15.5531 4.3032 16 3.75007 16C3.19695 16 2.75007 15.5531 2.75007 15ZM15.0001 0C15.5305 0 16.0392 0.210714 16.4143 0.585786C16.7894 0.960859 17.0001 1.46957 17.0001 2C17.0001 2.53043 16.7894 3.03914 16.4143 3.41421C16.0392 3.78929 15.5305 4 15.0001 4C14.4696 4 13.9609 3.78929 13.5859 3.41421C13.2108 3.03914 13.0001 2.53043 13.0001 2C13.0001 1.46957 13.2108 0.960859 13.5859 0.585786C13.9609 0.210714 14.4696 0 15.0001 0ZM14.7501 12V15C14.7501 15.5531 14.3032 16 13.7501 16C13.1969 16 12.7501 15.5531 12.7501 15V9.39062L12.3469 10.0312C12.0532 10.5 11.4344 10.6375 10.9688 10.3438C10.5032 10.05 10.3626 9.43125 10.6563 8.96562L12.2719 6.4C12.8219 5.52813 13.7813 4.99687 14.8094 4.99687H15.1938C16.2251 4.99687 17.1844 5.525 17.7313 6.4L19.3469 8.96875C19.6407 9.4375 19.5001 10.0531 19.0344 10.3469C18.5688 10.6406 17.9501 10.5 17.6563 10.0344L17.2501 9.39062V15C17.2501 15.5531 16.8032 16 16.2501 16C15.6969 16 15.2501 15.5531 15.2501 15V12H14.7501Z" fill="#F7265F"/>
</g>
<defs>
<clipPath id="clip0_256_158">
<rect width="20" height="16" fill="white"/>
</clipPath>
</defs>
</svg>
