<svg width="14" height="12" viewBox="0 0 14 12" fill="none" xmlns="http://www.w3.org/2000/svg">
<path d="M12.8333 0.555557H1.16667C0.522569 0.555557 0 1.07813 0 1.72222V10.2778C0 10.9219 0.522569 11.4444 1.16667 11.4444H12.8333C13.4774 11.4444 14 10.9219 14 10.2778V1.72222C14 1.07813 13.4774 0.555557 12.8333 0.555557ZM4.27778 2.88889C5.13576 2.88889 5.83333 3.58646 5.83333 4.44445C5.83333 5.30243 5.13576 6 4.27778 6C3.41979 6 2.72222 5.30243 2.72222 4.44445C2.72222 3.58646 3.41979 2.88889 4.27778 2.88889ZM7 8.64445C7 8.90208 6.75694 9.11111 6.45556 9.11111H2.1C1.79861 9.11111 1.55556 8.90208 1.55556 8.64445V8.17778C1.55556 7.40486 2.28715 6.77778 3.18889 6.77778H3.31042C3.60938 6.90174 3.93507 6.97222 4.27778 6.97222C4.62049 6.97222 4.94861 6.90174 5.24514 6.77778H5.36667C6.2684 6.77778 7 7.40486 7 8.17778V8.64445ZM12.4444 7.36111C12.4444 7.46806 12.3569 7.55556 12.25 7.55556H8.75C8.64306 7.55556 8.55556 7.46806 8.55556 7.36111V6.97222C8.55556 6.86528 8.64306 6.77778 8.75 6.77778H12.25C12.3569 6.77778 12.4444 6.86528 12.4444 6.97222V7.36111ZM12.4444 5.80556C12.4444 5.9125 12.3569 6 12.25 6H8.75C8.64306 6 8.55556 5.9125 8.55556 5.80556V5.41667C8.55556 5.30972 8.64306 5.22222 8.75 5.22222H12.25C12.3569 5.22222 12.4444 5.30972 12.4444 5.41667V5.80556ZM12.4444 4.25C12.4444 4.35695 12.3569 4.44445 12.25 4.44445H8.75C8.64306 4.44445 8.55556 4.35695 8.55556 4.25V3.86111C8.55556 3.75417 8.64306 3.66667 8.75 3.66667H12.25C12.3569 3.66667 12.4444 3.75417 12.4444 3.86111V4.25Z" fill="#F71855"/>
</svg>
