<svg width="22" height="17" viewBox="0 0 22 17" fill="none" xmlns="http://www.w3.org/2000/svg">
<path d="M11 1.5C10.6897 1.49998 10.3871 1.59619 10.1337 1.77538C9.88038 1.95456 9.68886 2.20791 9.58553 2.5005C9.51449 2.68172 9.37578 2.82822 9.19871 2.90905C9.02164 2.98987 8.82008 2.9987 8.63663 2.93365C8.45317 2.8686 8.30219 2.73478 8.21559 2.56047C8.12899 2.38615 8.11354 2.18499 8.17253 1.9995C8.3251 1.56855 8.57415 1.17817 8.90065 0.858176C9.22714 0.538183 9.62245 0.29704 10.0564 0.153166C10.4903 0.00929253 10.9514 -0.0335062 11.4044 0.0280389C11.8574 0.0895841 12.2903 0.253845 12.6702 0.508276C13.05 0.762707 13.3666 1.10058 13.5959 1.49608C13.8252 1.89158 13.9611 2.33426 13.9931 2.79029C14.0252 3.24633 13.9526 3.70366 13.7809 4.12736C13.6092 4.55106 13.343 4.92992 13.0025 5.235L12.941 5.2905C12.611 5.586 12.3125 5.8515 12.086 6.1395C11.846 6.4365 11.7515 6.678 11.7515 6.894C11.7515 7.2225 11.9315 7.524 12.221 7.68L20.24 12C20.7085 12.2532 21.0791 12.6554 21.2933 13.1429C21.5076 13.6304 21.5531 14.1754 21.4228 14.6917C21.2926 15.208 20.9939 15.6662 20.574 15.9937C20.1541 16.3212 19.637 16.4994 19.1045 16.5H2.89253C2.3596 16.5 1.84193 16.3221 1.42162 15.9944C1.0013 15.6668 0.702412 15.2082 0.572348 14.6914C0.442284 14.1746 0.488494 13.6292 0.703649 13.1416C0.918803 12.654 1.29058 12.2523 1.76003 12L8.39453 8.43C8.56891 8.3428 8.77039 8.32694 8.95626 8.38577C9.14214 8.4446 9.2978 8.5735 9.39026 8.74515C9.48272 8.9168 9.5047 9.1177 9.45154 9.30528C9.39839 9.49286 9.27429 9.65237 9.10553 9.75L2.46953 13.32C2.29367 13.4138 2.15427 13.5637 2.07353 13.7459C1.99279 13.9282 1.97537 14.1322 2.02403 14.3254C2.07269 14.5187 2.18464 14.6901 2.34204 14.8124C2.49944 14.9346 2.69323 15.0007 2.89253 15H19.1075C19.3061 14.9993 19.4989 14.9326 19.6553 14.8102C19.8118 14.6879 19.923 14.5169 19.9715 14.3243C20.02 14.1317 20.003 13.9284 19.9231 13.7466C19.8433 13.5647 19.7051 13.4146 19.5305 13.32L11.51 9C11.1299 8.79483 10.8122 8.49089 10.5905 8.12023C10.3687 7.74957 10.2511 7.32593 10.25 6.894C10.25 6.201 10.568 5.6355 10.91 5.205C11.222 4.8135 11.612 4.4655 11.921 4.1895L12.002 4.1175C12.2284 3.91482 12.3879 3.64818 12.4593 3.35286C12.5308 3.05755 12.5109 2.74749 12.4023 2.46374C12.2937 2.17998 12.1014 1.9359 11.851 1.7638C11.6006 1.59171 11.3039 1.49972 11 1.5Z" fill="#F71855"/>
</svg>
