<svg width="20" height="19" viewBox="0 0 20 19" fill="none" xmlns="http://www.w3.org/2000/svg">
<path d="M0.77002 8.423L5.03902 0.981003L9.30802 8.423H0.77002ZM5.05802 18.519C4.07335 18.519 3.24069 18.1787 2.56002 17.498C1.87935 16.8173 1.53902 15.9873 1.53902 15.008C1.53902 14.0147 1.87902 13.1783 2.55902 12.499C3.24035 11.8203 4.07335 11.481 5.05802 11.481C6.04269 11.481 6.87535 11.8213 7.55602 12.502C8.23669 13.1827 8.57702 14.0153 8.57702 15C8.57702 15.9847 8.23669 16.8173 7.55602 17.498C6.87535 18.1787 6.04269 18.519 5.05802 18.519ZM5.05802 17.519C5.76135 17.519 6.35702 17.2753 6.84502 16.788C7.33302 16.3007 7.57702 15.7047 7.57702 15C7.57702 14.2953 7.33302 13.6997 6.84502 13.213C6.35702 12.7263 5.76135 12.4823 5.05802 12.481C4.35469 12.4797 3.75869 12.7237 3.27002 13.213C2.78135 13.7023 2.53802 14.298 2.54002 15C2.54202 15.702 2.78569 16.298 3.27102 16.788C3.75635 17.278 4.35135 17.5217 5.05802 17.519ZM2.49602 7.423H7.60002L5.03902 3.01L2.49602 7.423ZM11.519 18.519V11.481H18.558V18.519H11.519ZM12.519 17.519H17.558V12.481H12.519V17.519ZM15.039 8.423C14.4224 7.93034 13.857 7.47334 13.343 7.052C12.8297 6.63 12.3877 6.22034 12.017 5.823C11.647 5.42567 11.3594 5.03067 11.154 4.638C10.9487 4.246 10.846 3.83534 10.846 3.406C10.846 2.80934 11.0414 2.317 11.432 1.929C11.822 1.54034 12.319 1.346 12.923 1.346C13.3217 1.346 13.6944 1.44367 14.041 1.639C14.3877 1.83434 14.7204 2.12834 15.039 2.521C15.357 2.14167 15.6957 1.851 16.055 1.649C16.415 1.447 16.7877 1.346 17.173 1.346C17.7597 1.346 18.2494 1.55034 18.642 1.959C19.0347 2.36834 19.231 2.86967 19.231 3.463C19.231 3.87967 19.1284 4.281 18.923 4.667C18.7184 5.05367 18.4307 5.44234 18.06 5.833C17.6894 6.22367 17.2474 6.63 16.734 7.052C16.2207 7.474 15.6557 7.931 15.039 8.423ZM15.039 7.125C16.2004 6.22767 17.0227 5.5 17.506 4.942C17.9894 4.384 18.231 3.88867 18.231 3.456C18.231 3.13667 18.13 2.87167 17.928 2.661C17.726 2.451 17.472 2.346 17.166 2.346C16.9507 2.346 16.7407 2.411 16.536 2.541C16.3314 2.671 16.048 2.917 15.686 3.279L15.039 3.915L14.391 3.279C14.0164 2.90434 13.7307 2.65534 13.534 2.532C13.3374 2.408 13.13 2.346 12.912 2.346C12.592 2.346 12.3347 2.44167 12.14 2.633C11.9454 2.82434 11.8474 3.08567 11.846 3.417C11.846 3.87634 12.0877 4.38467 12.571 4.942C13.0544 5.49934 13.8777 6.227 15.039 7.125Z" fill="#F71855"/>
</svg>
