<svg width="14" height="12" viewBox="0 0 14 12" fill="none" xmlns="http://www.w3.org/2000/svg">
<path d="M13.7348 4.21719C13.8414 4.13242 14 4.21172 14 4.3457V9.9375C14 10.6621 13.4121 11.25 12.6875 11.25H1.3125C0.587891 11.25 0 10.6621 0 9.9375V4.34844C0 4.21172 0.155859 4.13516 0.265234 4.21992C0.877734 4.6957 1.68984 5.3 4.47891 7.32617C5.05586 7.74727 6.0293 8.6332 7 8.62773C7.97617 8.63594 8.96875 7.73086 9.52383 7.32617C12.3129 5.3 13.1223 4.69297 13.7348 4.21719ZM7 7.75C7.63438 7.76094 8.54766 6.95156 9.00703 6.61797C12.6355 3.98477 12.9117 3.75508 13.7484 3.09883C13.907 2.97578 14 2.78437 14 2.58203V2.0625C14 1.33789 13.4121 0.75 12.6875 0.75H1.3125C0.587891 0.75 0 1.33789 0 2.0625V2.58203C0 2.78437 0.0929687 2.97305 0.251563 3.09883C1.08828 3.75234 1.36445 3.98477 4.99297 6.61797C5.45234 6.95156 6.36562 7.76094 7 7.75Z" fill="#F71855"/>
</svg>
