<svg width="22" height="22" viewBox="0 0 22 22" fill="none" xmlns="http://www.w3.org/2000/svg">
<path d="M20.25 11C20.25 13.4533 19.2754 15.806 17.5407 17.5407C15.806 19.2754 13.4533 20.25 11 20.25V21.75C16.937 21.75 21.75 16.937 21.75 11H20.25ZM11 20.25C8.54675 20.25 6.19397 19.2754 4.45926 17.5407C2.72455 15.806 1.75 13.4533 1.75 11H0.25C0.25 16.937 5.063 21.75 11 21.75V20.25ZM1.75 11C1.75 8.54675 2.72455 6.19397 4.45926 4.45926C6.19397 2.72455 8.54675 1.75 11 1.75V0.25C5.063 0.25 0.25 5.063 0.25 11H1.75ZM14.5 13.25C12.975 13.25 11.5125 12.6442 10.4341 11.5659C9.3558 10.4875 8.75 9.02499 8.75 7.5H7.25C7.25 9.42282 8.01384 11.2669 9.37348 12.6265C10.7331 13.9862 12.5772 14.75 14.5 14.75V13.25ZM19.425 10.469C18.9133 11.3176 18.191 12.0197 17.3281 12.5069C16.4652 12.9942 15.491 13.2501 14.5 13.25V14.75C15.7494 14.7504 16.9777 14.4279 18.0657 13.8138C19.1537 13.1997 20.0646 12.3148 20.71 11.245L19.425 10.469ZM8.75 7.5C8.74986 6.50903 9.00583 5.53483 9.49309 4.67193C9.98035 3.80902 10.6824 3.08669 11.531 2.575L10.755 1.291C9.68535 1.93628 8.80058 2.84701 8.18649 3.93486C7.57239 5.02271 7.2498 6.25078 7.25 7.5H8.75ZM11 1.75C10.9497 1.74903 10.9002 1.73811 10.8542 1.71785C10.8082 1.6976 10.7666 1.66842 10.732 1.632C10.6898 1.58965 10.6613 1.53568 10.65 1.477C10.646 1.446 10.648 1.356 10.755 1.291L11.531 2.575C12.034 2.271 12.196 1.714 12.137 1.276C12.075 0.821 11.717 0.25 11 0.25V1.75ZM20.71 11.245C20.644 11.352 20.554 11.354 20.523 11.35C20.4643 11.3387 20.4103 11.3102 20.368 11.268C20.3316 11.2334 20.3024 11.1918 20.2821 11.1458C20.2619 11.0998 20.251 11.0503 20.25 11H21.75C21.75 10.283 21.179 9.925 20.724 9.863C20.286 9.804 19.729 9.966 19.425 10.469L20.71 11.245Z" fill="#F71855"/>
</svg>
