<svg width="14" height="14" viewBox="0 0 14 14" fill="none" xmlns="http://www.w3.org/2000/svg">
<path d="M11.8125 6.125H11.1562V4.15625C11.1562 1.86484 9.29141 0 7 0C4.70859 0 2.84375 1.86484 2.84375 4.15625V6.125H2.1875C1.46289 6.125 0.875 6.71289 0.875 7.4375V12.6875C0.875 13.4121 1.46289 14 2.1875 14H11.8125C12.5371 14 13.125 13.4121 13.125 12.6875V7.4375C13.125 6.71289 12.5371 6.125 11.8125 6.125ZM8.96875 6.125H5.03125V4.15625C5.03125 3.0707 5.91445 2.1875 7 2.1875C8.08555 2.1875 8.96875 3.0707 8.96875 4.15625V6.125Z" fill="#F71855"/>
</svg>
