<svg width="20" height="20" viewBox="0 0 20 20" fill="none" xmlns="http://www.w3.org/2000/svg">
<path d="M9 0V1C7.27 1.2 5.69 1.9 4.4 2.94L3.64 2.18L2.22 3.6L3 4.35C1.90413 5.67792 1.21026 7.29117 1 9H0V11H1C1.21 12.68 1.9 14.26 3 15.56L2.22 16.32L3.64 17.74L4.39 17C5.71403 18.0771 7.30892 18.769 9 19V20H11V19C12.688 18.7687 14.2796 18.0767 15.6 17L16.36 17.74L17.78 16.32L17 15.57C18.1 14.27 18.79 12.68 19 11H20V9H19C18.7901 7.29409 18.0961 5.68396 17 4.36L17.78 3.6L16.36 2.18L15.61 2.94C14.2875 1.87076 12.6891 1.19812 11 1V0H9ZM9 3V6L8 6.5L5.81 4.35C6.72 3.67 7.81 3.17 9 3ZM11 3C12.16 3.18 13.26 3.64 14.2 4.35L12 6.5L11 6V3ZM4.4 5.76L6.5 8L6 9H3C3.16 7.84 3.7 6.7 4.39 5.75L4.4 5.76ZM15.6 5.76C16.33 6.71 16.81 7.82 17 9H14L13.5 8L15.61 5.76H15.6ZM10 8C11.12 8 12 8.88 12 10C12 11.12 11.12 12 10 12C8.88 12 8 11.12 8 10C8 8.88 8.88 8 10 8ZM3 11H6L6.57 12L4.39 14.15C3.67 13.24 3.19 12.16 3 11ZM14 11H17C16.8077 12.1529 16.3299 13.2392 15.61 14.16L13.5 12L14 11ZM8 13.5L9 14V17C7.82983 16.8007 6.72905 16.3088 5.8 15.57L8 13.5ZM12 13.5L14.19 15.57C13.28 16.25 12.19 16.83 11 17V14L12 13.5Z" fill="#F71855"/>
</svg>
