<svg width="24" height="24" viewBox="0 0 24 24" fill="none" xmlns="http://www.w3.org/2000/svg">
<path d="M19.4851 20.154L13.2231 13.892C12.7231 14.318 12.1481 14.6477 11.4981 14.881C10.8481 15.1143 10.1948 15.231 9.53811 15.231C7.93677 15.231 6.58144 14.6767 5.47211 13.568C4.36277 12.4593 3.80811 11.1043 3.80811 9.50302C3.80811 7.90168 4.36211 6.54601 5.47011 5.43601C6.57811 4.32601 7.93277 3.77035 9.53411 3.76901C11.1354 3.76768 12.4914 4.32235 13.6021 5.43301C14.7128 6.54368 15.2681 7.89935 15.2681 9.50001C15.2681 10.1947 15.1451 10.867 14.8991 11.517C14.6531 12.167 14.3298 12.723 13.9291 13.185L20.1911 19.446L19.4851 20.154ZM9.5391 14.23C10.8658 14.23 11.9858 13.7733 12.8991 12.86C13.8124 11.9467 14.2691 10.8263 14.2691 9.49901C14.2691 8.17168 13.8124 7.05168 12.8991 6.13901C11.9858 5.22635 10.8658 4.76968 9.5391 4.76901C8.21244 4.76835 7.09211 5.22501 6.17811 6.13901C5.26411 7.05301 4.80744 8.17301 4.80811 9.49901C4.80877 10.825 5.26544 11.945 6.17811 12.859C7.09077 13.773 8.21077 14.2297 9.53811 14.229" fill="white"/>
</svg>
