<svg width="23" height="15" viewBox="0 0 23 15" fill="none" xmlns="http://www.w3.org/2000/svg">
<path d="M0.75 9.25V14.875H16.875V9.25H0.75ZM15.375 13.375H2.25V10.75H15.375V13.375ZM18 9.25H19.5V14.875H18V9.25ZM20.625 9.25H22.125V14.875H20.625V9.25ZM18.0669 6.12344C17.8871 5.85215 17.8005 5.52971 17.8201 5.20482C17.8397 4.87994 17.9645 4.57027 18.1757 4.32259C18.6122 3.81492 18.8655 3.17537 18.8951 2.5065C18.9247 1.83763 18.7288 1.17821 18.3388 0.634L18.0645 0.25H16.35L16.2647 0.310937L17.1181 1.50578C17.3127 1.77734 17.4105 2.10638 17.3957 2.44013C17.381 2.77388 17.2546 3.093 17.0368 3.34633C16.6136 3.84272 16.3635 4.46333 16.3242 5.1144C16.2849 5.76548 16.4585 6.41167 16.8188 6.95538L17.0986 7.375H18.9014L18.0669 6.12344ZM21.4419 6.12344C21.2621 5.85215 21.1755 5.52971 21.1951 5.20482C21.2147 4.87994 21.3395 4.57027 21.5507 4.32259C21.9872 3.81492 22.2405 3.17537 22.2701 2.5065C22.2997 1.83763 22.1038 1.17821 21.7138 0.634L21.4395 0.25H19.725L19.6397 0.310937L20.4931 1.50578C20.6877 1.77734 20.7855 2.10638 20.7707 2.44013C20.756 2.77388 20.6296 3.093 20.4118 3.34633C19.9886 3.84272 19.7385 4.46333 19.6992 5.1144C19.6599 5.76548 19.8335 6.41167 20.1938 6.95538L20.4736 7.375H22.2764L21.4419 6.12344Z" fill="#F71855"/>
</svg>
