<svg width="24" height="18" viewBox="0 0 24 18" fill="none" xmlns="http://www.w3.org/2000/svg">
<path d="M22.5 16.6875H21.5625V5.25C21.5625 5.10082 21.5032 4.95774 21.3977 4.85225C21.2923 4.74676 21.1492 4.6875 21 4.6875H15C14.8508 4.6875 14.7077 4.74676 14.6023 4.85225C14.4968 4.95774 14.4375 5.10082 14.4375 5.25V9.1875H9.5625V0.75C9.5625 0.600816 9.50324 0.457742 9.39775 0.352252C9.29226 0.246763 9.14918 0.1875 9 0.1875H3C2.85082 0.1875 2.70774 0.246763 2.60225 0.352252C2.49676 0.457742 2.4375 0.600816 2.4375 0.75V16.6875H1.5C1.35082 16.6875 1.20774 16.7468 1.10225 16.8523C0.996763 16.9577 0.9375 17.1008 0.9375 17.25C0.9375 17.3992 0.996763 17.5423 1.10225 17.6477C1.20774 17.7532 1.35082 17.8125 1.5 17.8125H22.5C22.6492 17.8125 22.7923 17.7532 22.8977 17.6477C23.0032 17.5423 23.0625 17.3992 23.0625 17.25C23.0625 17.1008 23.0032 16.9577 22.8977 16.8523C22.7923 16.7468 22.6492 16.6875 22.5 16.6875ZM15.5625 5.8125H20.4375V16.6875H15.5625V5.8125ZM14.4375 10.3125V16.6875H9.5625V10.3125H14.4375ZM3.5625 1.3125H8.4375V16.6875H3.5625V1.3125ZM6.5625 3.75V5.25C6.5625 5.39918 6.50324 5.54226 6.39775 5.64775C6.29226 5.75324 6.14918 5.8125 6 5.8125C5.85082 5.8125 5.70774 5.75324 5.60225 5.64775C5.49676 5.54226 5.4375 5.39918 5.4375 5.25V3.75C5.4375 3.60082 5.49676 3.45774 5.60225 3.35225C5.70774 3.24676 5.85082 3.1875 6 3.1875C6.14918 3.1875 6.29226 3.24676 6.39775 3.35225C6.50324 3.45774 6.5625 3.60082 6.5625 3.75ZM6.5625 8.25V9.75C6.5625 9.89918 6.50324 10.0423 6.39775 10.1477C6.29226 10.2532 6.14918 10.3125 6 10.3125C5.85082 10.3125 5.70774 10.2532 5.60225 10.1477C5.49676 10.0423 5.4375 9.89918 5.4375 9.75V8.25C5.4375 8.10082 5.49676 7.95774 5.60225 7.85225C5.70774 7.74676 5.85082 7.6875 6 7.6875C6.14918 7.6875 6.29226 7.74676 6.39775 7.85225C6.50324 7.95774 6.5625 8.10082 6.5625 8.25ZM6.5625 12.75V14.25C6.5625 14.3992 6.50324 14.5423 6.39775 14.6477C6.29226 14.7532 6.14918 14.8125 6 14.8125C5.85082 14.8125 5.70774 14.7532 5.60225 14.6477C5.49676 14.5423 5.4375 14.3992 5.4375 14.25V12.75C5.4375 12.6008 5.49676 12.4577 5.60225 12.3523C5.70774 12.2468 5.85082 12.1875 6 12.1875C6.14918 12.1875 6.29226 12.2468 6.39775 12.3523C6.50324 12.4577 6.5625 12.6008 6.5625 12.75ZM11.4375 14.25V12.75C11.4375 12.6008 11.4968 12.4577 11.6023 12.3523C11.7077 12.2468 11.8508 12.1875 12 12.1875C12.1492 12.1875 12.2923 12.2468 12.3977 12.3523C12.5032 12.4577 12.5625 12.6008 12.5625 12.75V14.25C12.5625 14.3992 12.5032 14.5423 12.3977 14.6477C12.2923 14.7532 12.1492 14.8125 12 14.8125C11.8508 14.8125 11.7077 14.7532 11.6023 14.6477C11.4968 14.5423 11.4375 14.3992 11.4375 14.25ZM17.4375 14.25V12.75C17.4375 12.6008 17.4968 12.4577 17.6023 12.3523C17.7077 12.2468 17.8508 12.1875 18 12.1875C18.1492 12.1875 18.2923 12.2468 18.3977 12.3523C18.5032 12.4577 18.5625 12.6008 18.5625 12.75V14.25C18.5625 14.3992 18.5032 14.5423 18.3977 14.6477C18.2923 14.7532 18.1492 14.8125 18 14.8125C17.8508 14.8125 17.7077 14.7532 17.6023 14.6477C17.4968 14.5423 17.4375 14.3992 17.4375 14.25ZM17.4375 9.75V8.25C17.4375 8.10082 17.4968 7.95774 17.6023 7.85225C17.7077 7.74676 17.8508 7.6875 18 7.6875C18.1492 7.6875 18.2923 7.74676 18.3977 7.85225C18.5032 7.95774 18.5625 8.10082 18.5625 8.25V9.75C18.5625 9.89918 18.5032 10.0423 18.3977 10.1477C18.2923 10.2532 18.1492 10.3125 18 10.3125C17.8508 10.3125 17.7077 10.2532 17.6023 10.1477C17.4968 10.0423 17.4375 9.89918 17.4375 9.75Z" fill="#F71855"/>
</svg>
