<svg width="22" height="22" viewBox="0 0 22 22" fill="none" xmlns="http://www.w3.org/2000/svg">
<path d="M8.61245 2.185C7.02095 2.185 4.58095 3.1035 5.42945 8.7915C5.44278 8.8775 5.45862 8.97033 5.47695 9.07C5.63195 9.9255 5.87095 11.25 4.34995 12.342C5.38445 13.191 6.85795 14.0395 8.64845 14.407C8.5776 14.8131 8.48884 15.2158 8.38245 15.614C8.23695 16.148 7.93195 16.5265 7.38695 16.688C6.90695 16.83 6.40395 16.945 5.88895 17.063C5.75628 17.093 5.62295 17.1237 5.48895 17.155C4.84645 17.3045 4.19145 17.47 3.61095 17.704C3.02895 17.939 2.48795 18.2555 2.09695 18.7275C1.69895 19.209 1.48595 19.816 1.50045 20.575C1.50545 20.811 1.70745 21 1.95545 21H20.0445C20.2925 21 20.4945 20.811 20.4995 20.575C20.514 19.816 20.3015 19.209 19.903 18.7275C19.5125 18.2555 18.971 17.9385 18.3895 17.704C17.8085 17.4695 17.1535 17.304 16.5105 17.1545L16.1115 17.063C15.596 16.945 15.093 16.83 14.613 16.688C14.068 16.5265 13.763 16.148 13.6175 15.614C13.4903 15.1399 13.3892 14.6592 13.3145 14.174C14.6835 13.762 16.1385 13.0215 17.65 11.839L17.643 11.832C16.9335 11.153 15.6035 9.88 15.509 6.858C15.509 2.697 12.856 -0.96 8.61245 2.185Z" stroke="#F71855" stroke-width="2" stroke-linejoin="round"/>
</svg>
