<svg width="10" height="14" viewBox="0 0 10 14" fill="none" xmlns="http://www.w3.org/2000/svg">
<path d="M4.99992 3.33333C5.44195 3.33333 5.86587 3.50893 6.17843 3.82149C6.49099 4.13405 6.66659 4.55797 6.66659 5C6.66659 5.21887 6.62348 5.4356 6.53972 5.6378C6.45596 5.84001 6.33319 6.02375 6.17843 6.17851C6.02367 6.33327 5.83993 6.45604 5.63772 6.5398C5.43552 6.62356 5.21879 6.66667 4.99992 6.66667C4.55789 6.66667 4.13397 6.49107 3.82141 6.17851C3.50885 5.86595 3.33325 5.44203 3.33325 5C3.33325 4.55797 3.50885 4.13405 3.82141 3.82149C4.13397 3.50893 4.55789 3.33333 4.99992 3.33333ZM4.99992 0.333332C6.2376 0.333332 7.42458 0.824997 8.29975 1.70017C9.17492 2.57534 9.66659 3.76232 9.66659 5C9.66659 8.5 4.99992 13.6667 4.99992 13.6667C4.99992 13.6667 0.333252 8.5 0.333252 5C0.333252 3.76232 0.824917 2.57534 1.70009 1.70017C2.57526 0.824997 3.76224 0.333332 4.99992 0.333332ZM4.99992 1.66667C4.11586 1.66667 3.26802 2.01785 2.6429 2.64298C2.01777 3.2681 1.66659 4.11594 1.66659 5C1.66659 5.66667 1.66659 7 4.99992 11.4733C8.33325 7 8.33325 5.66667 8.33325 5C8.33325 4.11594 7.98206 3.2681 7.35694 2.64298C6.73182 2.01785 5.88397 1.66667 4.99992 1.66667Z" fill="#F71855"/>
</svg>
